<svg width="80" height="35" viewBox="0 0 80 35" fill="none" xmlns="http://www.w3.org/2000/svg">
<path fill-rule="evenodd" clip-rule="evenodd" d="M50.8547 15.5902C54.6022 18.5421 61.1837 25.2727 55.1618 29.4518C51.3296 32.1105 44.6885 32.3014 41.1758 28.9434C36.7736 24.7347 40.4136 18.9442 44.035 15.7344C45.0772 14.8099 46.1996 13.9675 47.3737 13.1857C48.578 13.9207 49.7451 14.7162 50.8547 15.5902ZM79.7856 1.24907C69.0084 1.34614 57.3803 3.97451 47.8791 9.53041C45.6956 8.34911 43.5378 7.39531 41.676 6.69147C30.86 2.60365 17.4142 1.65052 6.16832 4.48761C4.93946 4.79806 4.8302 6.32843 5.53384 7.09656C5.09355 6.71595 4.65784 6.32979 4.22669 5.9381C5.2932 4.85508 6.49556 3.97392 7.90255 3.25583C8.76248 2.81731 9.8006 2.59911 10.6118 2.10245C11.095 1.80676 11.0014 1.41381 11.5718 1.16328C11.7538 1.08339 11.793 0.792605 11.5601 0.742842C10.9224 0.607072 10.6302 0.140131 9.9867 0.031094C8.97302 -0.141101 7.28133 0.442939 6.36602 0.789919C4.08647 1.65404 2.1194 3.10527 0.458562 4.87001C-0.234876 5.60731 -0.0912731 6.66725 0.550536 7.37077C2.12367 9.09567 3.94172 10.5975 5.83139 11.9618C7.46886 13.1434 9.25273 14.5917 11.2653 14.9745C12.8432 15.2756 13.8407 13.4168 12.7172 12.2667C11.3465 10.8631 9.3847 10.0645 7.79353 8.90988C7.11127 8.41494 6.46383 7.8859 5.82724 7.34456C6.0557 7.48309 6.33242 7.55849 6.65567 7.53519C17.0995 6.78169 27.005 5.78474 37.2593 8.77645C39.7782 9.51028 42.2447 10.4639 44.5951 11.6441C44.398 11.782 44.1931 11.9125 43.997 12.0536C37.5597 16.705 31.7518 26.8474 40.5427 32.5365C46.7817 36.5754 60.6275 34.9105 60.8897 25.5632C61.0575 19.5909 56.1772 14.6855 50.7022 11.1918C53.6956 9.57306 56.8756 8.24363 59.9238 7.00877C66.2777 4.43359 73.0327 2.75741 79.7958 1.68522C80.0639 1.64248 80.0755 1.24625 79.7856 1.24907Z" fill="black"/>
</svg>
