<svg width="56" height="55" viewBox="0 0 56 55" fill="none" xmlns="http://www.w3.org/2000/svg">
<path d="M31.6977 53.7546C31.9096 54.3176 32.4783 54.6634 33.0756 54.5926C33.673 54.5218 34.1451 54.0526 34.2195 53.4557C35.0159 47.0737 40.3566 32.5664 55.214 26.099C55.782 25.8518 56.0986 25.2401 55.9725 24.6336C55.8465 24.0271 55.3122 23.5923 54.6928 23.5919C47.2978 23.5877 41.2408 20.1641 36.6286 15.7829C32.0062 11.392 28.9201 6.11412 27.5101 2.63792C27.2866 2.08684 26.7194 1.75593 26.1297 1.83252C25.5399 1.90912 25.0761 2.37393 25.0007 2.96383C22.7223 20.8046 10.0487 28.6054 4.17234 30.2648C3.55712 30.4385 3.15765 31.0315 3.22779 31.667C3.29793 32.3024 3.81713 32.794 4.45543 32.8293C11.0027 33.1921 25.726 37.8926 31.6977 53.7546Z" fill="#B3B3B3"/>
<path d="M22.4521 1.1176C22.5258 0.874971 22.7365 0.692687 22.9945 0.659175C23.2892 0.621117 23.5723 0.786879 23.684 1.06227C25.1245 4.61362 28.2601 9.97274 32.9582 14.4356C37.6512 18.8936 43.8614 22.4193 51.4725 22.4238C51.7821 22.4239 52.049 22.6419 52.1121 22.945C52.1751 23.2481 52.0174 23.5543 51.7336 23.678C37.0681 30.0618 31.5134 44.1138 30.4404 50.9179L30.3508 51.5536C30.3134 51.8518 30.0774 52.0857 29.779 52.1211C29.4803 52.1565 29.1962 51.984 29.0902 51.7026L28.7974 50.9523C22.7289 35.8664 8.80002 31.0267 1.92456 30.4024L1.2715 30.3548C0.952513 30.337 0.693223 30.0913 0.658106 29.7737C0.623043 29.4561 0.822632 29.1599 1.13012 29.073C7.20543 27.3574 20.1119 19.3768 22.4301 1.22505L22.4521 1.1176Z" fill="#FC75FF" stroke="black" stroke-width="1.30707" stroke-linejoin="round"/>
<path d="M37.3819 25.2983C30.8833 29.2721 28.4336 36.2627 27.7496 39.5062C25.5811 35.3572 20.0181 28.7565 15.0827 28.0893C17.0491 27.4309 22.0514 21.4063 24.3999 13.9688C28.6533 21.4756 34.6927 24.5737 37.3819 25.2983Z" fill="white" stroke="black" stroke-width="1.30707" stroke-linecap="round" stroke-linejoin="round"/>
</svg>
