<svg width="49" height="58" viewBox="0 0 49 58" fill="none" xmlns="http://www.w3.org/2000/svg">
<path d="M2.93406 56.3082C2.90782 56.7665 3.10864 57.2083 3.47112 57.4899C3.83361 57.7715 4.3114 57.8568 4.74892 57.718L21.2416 52.4873C21.5172 52.3999 21.7589 52.229 21.9332 51.9983L48.718 16.537C49.013 16.1464 49.0818 15.6299 48.8993 15.1757C47.1488 10.8199 43.7915 7.62358 40.227 5.56198C36.6821 3.51169 32.788 2.5002 29.8051 2.65652C29.3778 2.67892 28.9843 2.89619 28.7377 3.24595L4.18981 38.066C4.0396 38.2791 3.95208 38.53 3.93718 38.7902L2.93406 56.3082Z" fill="#B3B3B3"/>
<path d="M26.9101 0.71237C29.7296 0.564629 33.4908 1.5266 36.9461 3.52509C40.4113 5.52926 43.6419 8.61844 45.3205 12.7955C45.4115 13.0224 45.377 13.2804 45.2298 13.4755L18.4444 48.9373C18.3573 49.0524 18.237 49.1381 18.0995 49.1818L1.60666 54.4118C1.38797 54.4812 1.14888 54.439 0.967663 54.2983C0.786538 54.1576 0.685623 53.9367 0.698587 53.7078L1.70218 36.1896L1.71475 36.0929C1.73372 35.9977 1.77192 35.9071 1.82822 35.8272L26.3767 1.00687L26.4254 0.944539C26.5486 0.806374 26.723 0.722171 26.9101 0.71237Z" fill="white" stroke="black" stroke-width="1.39241" stroke-linejoin="round"/>
<path d="M26.9467 1.40914L2.39873 36.2292C5.5055 36.634 12.9529 39.6582 17.8883 48.5165L44.6731 13.0552C41.4595 5.05857 32.259 1.13074 26.9467 1.40914Z" fill="#FF5757"/>
<path d="M22.789 6.58414C27.8454 6.45629 31.9319 8.44004 34.9681 10.9456C37.9951 13.4435 40.0067 16.482 40.9424 18.5475C41.0478 18.7802 41.0179 19.0523 40.8639 19.2562L18.4449 48.9368C18.3022 49.1258 18.0733 49.23 17.8371 49.2127C17.601 49.1954 17.3899 49.0589 17.2763 48.8511C12.5996 40.2983 5.26767 37.3371 2.30161 36.9201C2.06091 36.8862 1.85521 36.7296 1.7586 36.5066C1.66203 36.2835 1.68882 36.0264 1.82886 35.8277L22.2361 6.87966L22.2876 6.81522C22.415 6.67363 22.5962 6.58901 22.789 6.58414Z" fill="#F8D044" stroke="black" stroke-width="1.39241" stroke-linejoin="round"/>
<path d="M1.89694 44.9884L1.39538 53.7474L9.64171 51.132C6.93276 47.4316 3.3498 45.4944 1.89694 44.9884Z" fill="black"/>
<path d="M16.0628 46.1672L39.0451 15.6317" stroke="black" stroke-width="1.39241" stroke-linecap="round" stroke-linejoin="round"/>
<path d="M8.51284 39.5764L30.0499 8.23256" stroke="black" stroke-width="1.39241" stroke-linecap="round" stroke-linejoin="round"/>
</svg>
