<svg width="42" height="79" viewBox="0 0 42 79" fill="none" xmlns="http://www.w3.org/2000/svg">
<path fill-rule="evenodd" clip-rule="evenodd" d="M23.4778 31.2441C27.1009 28.1729 34.9723 23.0857 37.8561 29.7895C39.6905 34.0555 38.5603 40.573 34.5877 43.3346C29.6086 46.7955 24.6805 42.0962 22.2666 37.9265C21.5713 36.7264 20.9718 35.4643 20.4418 34.1638C21.3977 33.1344 22.4052 32.1534 23.4778 31.2441ZM15.2213 0.173948C13.1796 10.7083 13.439 22.5746 16.9764 32.9461C15.391 34.8423 14.0327 36.7586 12.9769 38.4356C6.84439 48.1783 3.24909 61.1081 3.7879 72.6429C3.84721 73.9034 5.3187 74.3134 6.20763 73.7791C5.749 74.1332 5.28586 74.4818 4.81822 74.8248C3.97295 73.5696 3.35157 72.2218 2.92985 70.7067C2.67247 69.7807 2.66536 68.7246 2.34158 67.8347C2.14886 67.3046 1.74692 67.318 1.61555 66.7118C1.57367 66.5185 1.29774 66.4225 1.20302 66.6399C0.944138 67.2352 0.430635 67.4277 0.196684 68.034C-0.172266 68.9888 0.0622251 70.7552 0.219325 71.717C0.61056 74.1124 1.63656 76.3193 3.02915 78.2896C3.61106 79.1123 4.67369 79.1823 5.48733 78.6956C7.48212 77.5026 9.3078 76.0265 11.0135 74.4532C12.491 73.0898 14.2577 71.6364 15.0302 69.7487C15.6366 68.2689 14.0208 66.9271 12.676 67.7953C11.0348 68.8544 9.86676 70.6102 8.42479 71.9338C7.80664 72.5014 7.16212 73.0282 6.50776 73.542C6.68821 73.3466 6.81662 73.0915 6.85797 72.7715C8.19309 62.4323 9.18395 52.5701 14.1356 43.1582C15.3509 40.8461 16.7703 38.6285 18.3877 36.5693C18.4832 36.7889 18.5699 37.0147 18.6686 37.234C21.9309 44.4367 30.6753 52.114 37.9687 44.6646C43.1461 39.378 44.2664 25.5389 35.1984 23.4301C29.4046 22.0826 23.651 25.8718 19.157 30.5211C18.171 27.2795 17.5043 23.9134 16.9037 20.6945C15.6507 13.9846 15.3543 7.06162 15.6489 0.250465C15.6603 -0.0196114 15.276 -0.109449 15.2213 0.173948Z" fill="black"/>
</svg>
