<svg width="49" height="65" viewBox="0 0 49 65" fill="none" xmlns="http://www.w3.org/2000/svg">
<path fill-rule="evenodd" clip-rule="evenodd" d="M27.5786 16.9252C28.0484 12.198 30.1715 3.06755 36.9058 5.88295C41.1907 7.67503 44.9092 13.1471 43.9727 17.8947C42.7987 23.8448 35.9881 23.892 31.3536 22.5721C30.0192 22.1927 28.7107 21.7019 27.4255 21.1353C27.3971 19.7306 27.4395 18.3248 27.5786 16.9252ZM0.0407102 0.324914C5.89659 9.31895 14.333 17.6709 24.0872 22.669C24.2655 25.1347 24.6211 27.457 25.0278 29.3968C27.3919 40.6656 33.796 52.4622 42.2028 60.3815C43.1218 61.2466 44.4649 60.5184 44.7327 59.5162C44.6491 60.0897 44.5584 60.6623 44.4606 61.2341C42.9802 60.9192 41.5963 60.3821 40.2397 59.5858C39.4109 59.099 38.6715 58.3446 37.8201 57.9298C37.3129 57.6826 37.0333 57.9717 36.5174 57.6272C36.3528 57.5173 36.0877 57.6401 36.1707 57.8623C36.3984 58.4703 36.1631 58.9657 36.4163 59.5643C36.8149 60.5074 38.2115 61.6144 38.9932 62.1968C40.9399 63.6472 43.212 64.5207 45.5831 64.9692C46.5735 65.1562 47.3862 64.4678 47.6329 63.5521C48.2378 61.3075 48.5243 58.9768 48.6569 56.6597C48.7714 54.6522 49.0312 52.3789 48.2742 50.4844C47.6815 48.9988 45.5868 49.1574 45.2235 50.7166C44.7797 52.6192 45.1606 54.6937 45.044 56.6479C44.9941 57.4858 44.8969 58.3127 44.7836 59.1371C44.7775 58.8711 44.6925 58.5984 44.4998 58.3396C38.2715 49.9771 32.1274 42.1969 29.1444 31.9869C28.4107 29.4795 27.8896 26.8982 27.6209 24.293C27.8422 24.3846 28.0615 24.4866 28.285 24.5756C35.6383 27.4866 47.2633 26.9274 47.3284 16.5004C47.3757 9.09956 38.5598 -1.63004 30.5735 3.1581C25.4707 6.21718 23.9681 12.9419 23.969 19.4093C21.0065 17.764 18.1868 15.8072 15.5171 13.9102C9.95115 9.95672 4.92493 5.18491 0.401343 0.0826729C0.221804 -0.119478 -0.116979 0.0831053 0.0407102 0.324914Z" fill="black"/>
</svg>
