<svg width="61" height="51" viewBox="0 0 61 51" fill="none" xmlns="http://www.w3.org/2000/svg">
<path d="M59.4423 34.5754C60.2115 34.454 60.2119 34.454 60.2118 34.4536L60.2111 34.4524C60.2109 34.4513 60.2105 34.4499 60.2102 34.4481C60.2097 34.4446 60.2091 34.4396 60.2081 34.4334C60.206 34.4208 60.2033 34.4027 60.1993 34.3794C60.1913 34.3326 60.1788 34.2643 60.1626 34.1762C60.1303 33.9999 60.0813 33.7428 60.012 33.4162C59.8734 32.763 59.6549 31.8288 59.3344 30.6939C58.6939 28.4253 57.6429 25.345 55.9983 22.1031C52.7147 15.6305 47.014 8.41653 37.411 5.84341C27.808 3.27035 19.264 6.66737 13.1841 10.631C10.1388 12.6163 7.68844 14.7585 5.99942 16.4029C5.15447 17.2255 4.49811 17.9253 4.05151 18.4216C3.82814 18.6699 3.6572 18.868 3.54105 19.0045C3.48306 19.0727 3.438 19.1256 3.40771 19.1621C3.39269 19.1803 3.38114 19.1946 3.37309 19.2045C3.3691 19.2093 3.36612 19.2134 3.36388 19.2162C3.36277 19.2175 3.36165 19.2186 3.36098 19.2194L3.35978 19.2201C3.35952 19.2205 3.36442 19.2244 3.96532 19.7103M59.4423 34.5754L60.0476 35.0665L60.0464 35.0672C60.0457 35.068 60.0446 35.0691 60.0435 35.0705C60.0412 35.0733 60.0382 35.0773 60.0343 35.0822C60.0262 35.0921 60.0147 35.1063 59.9996 35.1245C59.9693 35.1611 59.9244 35.2139 59.8663 35.2821C59.7501 35.4187 59.5792 35.6168 59.3558 35.865C58.9092 36.3614 58.2529 37.0612 57.4079 37.8838C55.7189 39.5282 53.2685 41.6704 50.2233 43.6556C44.1433 47.6192 35.5996 51.0154 25.9966 48.4423C16.3937 45.8691 10.6926 38.6562 7.40908 32.1836C5.76446 28.9417 4.71346 25.8613 4.07291 23.5927C3.75248 22.4578 3.53395 21.5236 3.39534 20.8705C3.32602 20.5438 3.27704 20.2868 3.24472 20.1104C3.22857 20.0223 3.21602 19.9541 3.20805 19.9073C3.20409 19.884 3.2013 19.8659 3.19924 19.8533C3.19821 19.847 3.19768 19.8421 3.19711 19.8385C3.19683 19.8368 3.19641 19.8353 3.19624 19.8343L3.19555 19.8331L3.96532 19.7103M59.4423 34.5754L60.0478 35.0656C60.1864 34.8942 60.2459 34.6722 60.2115 34.4545L59.4423 34.5754ZM3.96532 19.7103L3.1958 19.8321C3.16148 19.6145 3.22102 19.3924 3.35953 19.2211L3.96532 19.7103Z" fill="#B3B3B3" stroke="#B3B3B3" stroke-width="1.55568" stroke-linejoin="round"/>
<path d="M57.0346 30.4064C57.8039 30.2851 57.8042 30.2851 57.8041 30.2847L57.8034 30.2835C57.8033 30.2824 57.8029 30.281 57.8026 30.2792C57.802 30.2756 57.8015 30.2707 57.8004 30.2644C57.7984 30.2519 57.7956 30.2337 57.7916 30.2105C57.7837 30.1636 57.7711 30.0954 57.755 30.0073C57.7226 29.831 57.6737 29.5739 57.6043 29.2472C57.4657 28.5941 57.2472 27.6599 56.9268 26.525C56.2862 24.2564 55.2352 21.176 53.5906 17.9341C50.307 11.4615 44.6063 4.2476 35.0033 1.67448C25.4003 -0.898578 16.8563 2.49844 10.7764 6.46211C7.73118 8.44736 5.28078 10.5896 3.59176 12.2339C2.74681 13.0566 2.09044 13.7563 1.64385 14.2527C1.42047 14.5009 1.24954 14.699 1.13338 14.8356C1.07539 14.9037 1.03034 14.9567 1.00005 14.9932C0.985019 15.0113 0.973474 15.0257 0.96542 15.0355C0.961438 15.0404 0.958456 15.0445 0.956211 15.0472C0.955108 15.0486 0.953984 15.0497 0.95331 15.0505L0.952112 15.0512C0.951856 15.0516 0.956752 15.0555 1.55766 15.5414M57.0346 30.4064L57.6399 30.8976L57.6387 30.8983C57.638 30.8991 57.6369 30.9002 57.6358 30.9015C57.6335 30.9043 57.6306 30.9084 57.6266 30.9133C57.6185 30.9231 57.6071 30.9374 57.592 30.9556C57.5616 30.9922 57.5167 31.0449 57.4586 31.1132C57.3425 31.2497 57.1715 31.4479 56.9482 31.6961C56.5015 32.1925 55.8452 32.8922 55.0003 33.7149C53.3112 35.3592 50.8608 37.5014 47.8156 39.4867C41.7357 43.4503 33.1919 46.8465 23.589 44.2734C13.986 41.7002 8.28497 34.4872 5.00141 28.0146C3.3568 24.7728 2.30579 21.6924 1.66524 19.4238C1.34481 18.2889 1.12628 17.3547 0.987674 16.7015C0.918352 16.3749 0.869377 16.1178 0.83705 15.9415C0.8209 15.8534 0.808352 15.7852 0.800387 15.7383C0.796424 15.715 0.793631 15.6969 0.791571 15.6844C0.790546 15.6781 0.790016 15.6731 0.789447 15.6696C0.789162 15.6678 0.788742 15.6664 0.78857 15.6653L0.787879 15.6641L1.55766 15.5414M57.0346 30.4064L57.6402 30.8966C57.7787 30.7253 57.8382 30.5033 57.8039 30.2856L57.0346 30.4064ZM1.55766 15.5414L0.788132 15.6632C0.753816 15.4456 0.813358 15.2235 0.951859 15.0521L1.55766 15.5414Z" fill="#44E2F8" stroke="black" stroke-width="1.55568" stroke-linejoin="round"/>
<path d="M32.2522 8.52534C39.4294 10.1287 43.7125 17.7568 41.9951 25.4449C40.2776 33.133 33.1554 38.2131 25.9782 36.6097C18.801 35.0062 14.5177 27.3782 16.2352 19.6901C17.9528 12.0022 25.0751 6.92212 32.2522 8.52534Z" fill="white" stroke="black" stroke-width="1.55568" stroke-linecap="round" stroke-linejoin="round"/>
<path d="M31.0607 13.4557C35.6402 14.479 38.4631 19.1157 37.4222 23.7752C36.3811 28.4344 31.8536 31.4283 27.2741 30.4054C22.6945 29.3823 19.8707 24.7461 20.9114 20.0867C21.9524 15.4272 26.4809 12.4326 31.0607 13.4557Z" fill="#FC75FF" stroke="black" stroke-width="1.55568" stroke-linecap="round" stroke-linejoin="round"/>
<ellipse cx="28.8513" cy="21.1884" rx="3.81782" ry="3.92954" transform="rotate(12.5931 28.8513 21.1884)" fill="black"/>
</svg>
